<svg width="100" height="100" viewBox="0 0 100 100" fill="none" xmlns="http://www.w3.org/2000/svg">
<g clip-path="url(#clip0)">
<path d="M100 18.9938C96.2812 20.625 92.3187 21.7062 88.1875 22.2312C92.4375 19.6937 95.6813 15.7062 97.2063 10.9C93.2438 13.2625 88.8687 14.9313 84.2062 15.8625C80.4437 11.8563 75.0812 9.375 69.2312 9.375C57.8812 9.375 48.7437 18.5875 48.7437 29.8813C48.7437 31.5063 48.8812 33.0687 49.2188 34.5562C32.175 33.725 17.0938 25.5563 6.9625 13.1125C5.19375 16.1813 4.15625 19.6938 4.15625 23.475C4.15625 30.575 7.8125 36.8687 13.2625 40.5125C9.96875 40.45 6.7375 39.4938 4 37.9875C4 38.05 4 38.1312 4 38.2125C4 48.175 11.1062 56.45 20.425 58.3562C18.7562 58.8125 16.9375 59.0312 15.05 59.0312C13.7375 59.0312 12.4125 58.9562 11.1687 58.6812C13.825 66.8 21.3625 72.7687 30.325 72.9625C23.35 78.4187 14.4938 81.7062 4.90625 81.7062C3.225 81.7062 1.6125 81.6312 0 81.425C9.08125 87.2812 19.8438 90.625 31.45 90.625C69.175 90.625 89.8 59.375 89.8 32.2875C89.8 31.3812 89.7687 30.5063 89.725 29.6375C93.7937 26.75 97.2125 23.1438 100 18.9938Z" fill="white"/>
</g>
<defs>
<clipPath id="clip0">
<rect width="100" height="100" fill="white"/>
</clipPath>
</defs>
</svg>
