<svg width="100" height="100" viewBox="0 0 100 100" fill="none" xmlns="http://www.w3.org/2000/svg">
<path d="M95.75 22.25C93.0375 17.425 90.0938 16.5375 84.1 16.2C78.1125 15.7938 63.0562 15.625 50.0125 15.625C36.9437 15.625 21.8812 15.7938 15.9 16.1938C9.91875 16.5375 6.96875 17.4187 4.23125 22.25C1.4375 27.0687 0 35.3688 0 49.9813C0 49.9938 0 50 0 50C0 50.0125 0 50.0188 0 50.0188V50.0313C0 64.5813 1.4375 72.9438 4.23125 77.7125C6.96875 82.5375 9.9125 83.4125 15.8937 83.8188C21.8812 84.1688 36.9437 84.375 50.0125 84.375C63.0562 84.375 78.1125 84.1687 84.1062 83.825C90.1 83.4187 93.0438 82.5438 95.7563 77.7188C98.575 72.95 100 64.5875 100 50.0375C100 50.0375 100 50.0188 100 50.0063C100 50.0063 100 49.9938 100 49.9875C100 35.3688 98.575 27.0687 95.75 22.25ZM37.5 68.75V31.25L68.75 50L37.5 68.75Z" fill="white"/>
</svg>
