<svg width="130" height="40" viewBox="0 0 130 40" fill="none" xmlns="http://www.w3.org/2000/svg">
<path d="M19.4951 0C8.7285 0 0 8.95424 0 19.9996C0 31.0462 8.7285 40 19.4951 40C30.2622 40 38.9903 31.0462 38.9903 19.9996C38.9903 8.95495 30.2627 0.000954567 19.4949 0.000954567L19.4951 0ZM28.4355 28.8452C28.0853 29.4344 27.3371 29.619 26.7647 29.2601C22.1867 26.3896 16.4245 25.7412 9.63848 27.3316C8.98456 27.4854 8.33273 27.0648 8.18375 26.3942C8.03406 25.7233 8.44214 25.0546 9.0977 24.9018C16.5239 23.16 22.894 23.9097 28.0325 27.1309C28.6052 27.4916 28.7867 28.2582 28.4352 28.8457L28.4355 28.8452ZM30.8216 23.4003C30.3807 24.1342 29.4453 24.3644 28.7309 23.9137C23.4918 20.6098 15.5029 19.6529 9.30466 21.5831C8.50081 21.8321 7.6518 21.3674 7.40783 20.5442C7.16572 19.7195 7.61899 18.8502 8.42143 18.5994C15.5015 16.3955 24.3031 17.4631 30.3209 21.2568C31.0356 21.7082 31.2614 22.6683 30.8214 23.4005L30.8216 23.4003ZM31.0265 17.7296C24.7424 13.901 14.3768 13.549 8.37788 15.4168C7.41458 15.7166 6.39585 15.1587 6.10392 14.1704C5.812 13.1817 6.35535 12.1373 7.31935 11.8368C14.2057 9.69221 25.6535 10.1066 32.8875 14.5122C33.7539 15.0397 34.0382 16.1877 33.5246 17.0755C33.0125 17.9644 31.8904 18.2574 31.0267 17.7296H31.0265ZM53.0398 18.4633C49.6738 17.6398 49.0746 17.0619 49.0746 15.8474C49.0746 14.7001 50.1275 13.928 51.6933 13.928C53.2111 13.928 54.7162 14.5143 56.2941 15.7213C56.3418 15.7579 56.4016 15.7724 56.4605 15.7629C56.5194 15.7538 56.5716 15.7206 56.606 15.6707L58.2496 13.2939C58.3171 13.196 58.2987 13.0611 58.2077 12.9863C56.3297 11.4404 54.215 10.6888 51.7431 10.6888C48.1087 10.6888 45.5701 12.9264 45.5701 16.1278C45.5701 19.5609 47.76 20.7765 51.5443 21.7149C54.7653 22.476 55.3089 23.1137 55.3089 24.2536C55.3089 25.5167 54.2096 26.302 52.4406 26.302C50.4758 26.302 48.8732 25.623 47.0804 24.0303C47.036 23.9909 46.975 23.973 46.9187 23.9763C46.8593 23.9813 46.805 24.0095 46.7673 24.0561L44.9245 26.306C44.8472 26.3994 44.857 26.5389 44.9464 26.6196C47.0323 28.53 49.5977 29.539 52.3661 29.539C56.2825 29.539 58.8132 27.3438 58.8132 23.946C58.8202 21.0777 57.1464 19.4895 53.0468 18.4664L53.0398 18.4633ZM67.6734 15.0576C65.9759 15.0576 64.5835 15.7435 63.4354 17.149V15.567C63.4354 15.4421 63.3367 15.3404 63.2151 15.3404H60.2011C60.0794 15.3404 59.9809 15.4421 59.9809 15.567V33.145C59.9809 33.2699 60.0793 33.3717 60.2011 33.3717H63.2151C63.3367 33.3717 63.4354 33.2699 63.4354 33.145V27.5964C64.5837 28.9185 65.9763 29.5646 67.6734 29.5646C70.8276 29.5646 74.0207 27.0736 74.0207 22.3119C74.0253 17.5491 70.8313 15.0574 67.6769 15.0574L67.6734 15.0576ZM70.5159 22.3119C70.5159 24.7367 69.06 26.4288 66.9753 26.4288C64.9143 26.4288 63.3597 24.6598 63.3597 22.3119C63.3597 19.9643 64.9143 18.1951 66.9753 18.1951C69.0262 18.1948 70.5161 19.9258 70.5161 22.3117L70.5159 22.3119ZM82.2046 15.0576C78.1426 15.0576 74.9602 18.2665 74.9602 22.3638C74.9602 26.4164 78.1207 29.5915 82.1548 29.5915C86.2313 29.5915 89.4234 26.3934 89.4234 22.3119C89.4234 18.2445 86.2527 15.0581 82.2044 15.0581L82.2046 15.0576ZM82.2046 26.4529C80.044 26.4529 78.4152 24.672 78.4152 22.3107C78.4152 19.9394 79.9877 18.2187 82.1548 18.2187C84.3294 18.2187 85.9692 19.9996 85.9692 22.3626C85.9692 24.7334 84.3862 26.4529 82.2048 26.4529H82.2046ZM98.0977 15.3404H94.781V11.8617C94.781 11.737 94.6828 11.6353 94.561 11.6353H91.5475C91.4255 11.6353 91.3266 11.737 91.3266 11.8617V15.3404H89.8774C89.7561 15.3404 89.6579 15.4421 89.6579 15.5671V18.2245C89.6579 18.3491 89.7561 18.4511 89.8774 18.4511H91.3266V25.3271C91.3266 28.1058 92.6747 29.5147 95.3335 29.5147C96.4146 29.5147 97.3115 29.2856 98.1568 28.7939C98.2255 28.7545 98.2681 28.6785 98.2681 28.5978V26.0672C98.2681 25.9891 98.2285 25.9153 98.1633 25.8745C98.0977 25.8322 98.016 25.8301 97.9487 25.8642C97.3681 26.164 96.8068 26.3022 96.1794 26.3022C95.2124 26.3022 94.781 25.8518 94.781 24.8423V18.4523H98.0977C98.2194 18.4523 98.3174 18.3506 98.3174 18.2257V15.5685C98.3221 15.4436 98.2243 15.3419 98.101 15.3419L98.0977 15.3404ZM109.654 15.354V14.9268C109.654 13.6698 110.124 13.1093 111.177 13.1093C111.806 13.1093 112.31 13.2373 112.875 13.4308C112.945 13.4532 113.018 13.442 113.074 13.3992C113.132 13.3565 113.165 13.2879 113.165 13.2153V10.6098C113.165 10.5102 113.103 10.422 113.009 10.3927C112.412 10.2104 111.648 10.0234 110.504 10.0234C107.72 10.0234 106.249 11.6317 106.249 14.6726V15.327H104.801C104.679 15.327 104.58 15.4288 104.58 15.5534V18.2244C104.58 18.3491 104.679 18.4511 104.801 18.4511H106.249V29.057C106.249 29.1819 106.347 29.2837 106.469 29.2837H109.483C109.604 29.2837 109.704 29.1819 109.704 29.057V18.4518H112.518L116.828 29.0552C116.339 30.1693 115.858 30.3909 115.201 30.3909C114.67 30.3909 114.111 30.2283 113.539 29.9073C113.485 29.8769 113.421 29.8719 113.363 29.8903C113.306 29.9111 113.257 29.955 113.233 30.0124L112.212 32.3115C112.163 32.4202 112.205 32.5477 112.306 32.6041C113.373 33.1966 114.336 33.4495 115.525 33.4495C117.751 33.4495 118.981 32.386 120.065 29.5249L125.294 15.6635C125.321 15.5938 125.313 15.515 125.271 15.4531C125.23 15.3917 125.163 15.3547 125.09 15.3547H121.952C121.858 15.3547 121.774 15.4161 121.743 15.5066L118.529 24.9254L115.008 15.5004C114.976 15.4128 114.894 15.3547 114.803 15.3547H109.653L109.654 15.354ZM102.954 15.3404H99.9398C99.8181 15.3404 99.7189 15.4421 99.7189 15.5671V29.0571C99.7189 29.182 99.8181 29.2837 99.9398 29.2837H102.954C103.075 29.2837 103.175 29.182 103.175 29.0571V15.568C103.175 15.5382 103.169 15.5087 103.158 15.4811C103.147 15.4536 103.131 15.4286 103.11 15.4075C103.09 15.3864 103.065 15.3698 103.038 15.3584C103.011 15.3471 102.983 15.3413 102.954 15.3414L102.954 15.3404ZM101.464 9.19809C100.27 9.19809 99.301 10.1897 99.301 11.4146C99.301 12.6403 100.27 13.6331 101.464 13.6331C102.658 13.6331 103.625 12.6403 103.625 11.4146C103.625 10.1899 102.657 9.19809 101.465 9.19809H101.464ZM127.868 19.6777C126.675 19.6777 125.747 18.6949 125.747 17.5015C125.747 16.3081 126.687 15.3141 127.879 15.3141C129.072 15.3141 130 16.2967 130 17.4891C130 18.6825 129.059 19.6777 127.868 19.6777H127.868ZM127.879 15.5305C126.793 15.5305 125.971 16.4166 125.971 17.5015C125.971 18.586 126.787 19.4601 127.868 19.4601C128.955 19.4601 129.778 18.5748 129.778 17.4891C129.778 16.4046 128.961 15.5305 127.88 15.5305H127.879ZM128.35 17.7129L128.95 18.5746H128.444L127.904 17.7841H127.439V18.5746H127.016V16.2905H128.009C128.526 16.2905 128.866 16.562 128.866 17.0191C128.868 17.3936 128.657 17.6224 128.352 17.7129H128.35V17.7129ZM127.991 16.6824H127.439V17.4048H127.991C128.267 17.4048 128.431 17.2665 128.431 17.0432C128.431 16.8082 128.266 16.6824 127.991 16.6824H127.991V16.6824Z" fill="white"/>
</svg>
