<svg width="40" height="40" viewBox="0 0 40 40" fill="none" xmlns="http://www.w3.org/2000/svg">
<path d="M38.3333 21.6321H1.66667C0.746663 21.6321 0 20.8854 0 19.9654C0 19.0454 0.746663 18.2987 1.66667 18.2987H38.3333C39.2533 18.2987 40 19.0454 40 19.9654C40 20.8854 39.2533 21.6321 38.3333 21.6321Z" fill="white"/>
<path d="M38.3333 8.85418H1.66667C0.746663 8.85418 0 8.10751 0 7.18751C0 6.26751 0.746663 5.52084 1.66667 5.52084H38.3333C39.2533 5.52084 40 6.26751 40 7.18751C40 8.10751 39.2533 8.85418 38.3333 8.85418Z" fill="white"/>
<path d="M38.3333 34.4096H1.66667C0.746663 34.4096 0 33.6629 0 32.7429C0 31.8229 0.746663 31.0763 1.66667 31.0763H38.3333C39.2533 31.0763 40 31.8229 40 32.7429C40 33.6629 39.2533 34.4096 38.3333 34.4096Z" fill="white"/>
</svg>
