<svg width="40" height="40" viewBox="0 0 40 40" fill="none" xmlns="http://www.w3.org/2000/svg">
<path d="M26.6 20.0012L38.9745 7.62672C40.3417 6.25947 40.3417 4.0428 38.9745 2.67769L37.3248 1.02801C35.9571 -0.339678 33.7405 -0.339678 32.3753 1.02801L20.0012 13.4021L7.62672 1.02544C6.25947 -0.341814 4.0428 -0.341814 2.67769 1.02544L1.02544 2.67512C-0.341814 4.0428 -0.341814 6.25947 1.02544 7.62459L13.4021 20.0012L1.02801 32.3753C-0.339678 33.743 -0.339678 35.9597 1.02801 37.3248L2.67769 38.9745C4.04494 40.3417 6.2616 40.3417 7.62672 38.9745L20.0012 26.6L32.3753 38.9745C33.743 40.3417 35.9597 40.3417 37.3248 38.9745L38.9745 37.3248C40.3417 35.9571 40.3417 33.7405 38.9745 32.3753L26.6 20.0012Z" fill="white"/>
</svg>
